<svg class="hierarchy-chart" viewBox="0 0 1065 745.5">
    <path class="link" d="M353,416C353,363.5,568,363.5,568,311" transform="translate(4,0)" fill="none" stroke="#e80000"
        stroke-width="5"></path>
    <path class="link" d="M353,416C353,507.5,398,507.5,398,599" transform="translate(4,0)" fill="none" stroke="#e80000"
        stroke-width="5"></path>
    <path class="link" d="M568,311C568,192.775,1065,192.775,1065,74.55" transform="translate(4,0)" fill="none"
        stroke="#e80000" stroke-width="5"></path>
    <path class="link" d="M568,311C568,230.05,1065,230.05,1065,149.1" transform="translate(4,0)" fill="none"
        stroke="#e80000" stroke-width="5"></path>
    <path class="link" d="M568,311C568,267.325,1065,267.325,1065,223.65" transform="translate(4,0)" fill="none"
        stroke="#e80000" stroke-width="5"></path>
    <path class="link" d="M568,311C568,304.6,1065,304.6,1065,298.2" transform="translate(4,0)" fill="none"
        stroke="#e80000" stroke-width="5"></path>
    <path class="link" d="M398,599C398,523.15,1065,523.15,1065,447.3" transform="translate(4,0)" fill="none"
        stroke="#e80000" stroke-width="5"></path>
    <path class="link" d="M398,599C398,560.425,1065,560.425,1065,521.85" transform="translate(4,0)" fill="none"
        stroke="#e80000" stroke-width="5"></path>
    <path class="link" d="M398,599C398,597.7,1065,597.7,1065,596.4" transform="translate(4,0)" fill="none"
        stroke="#e80000" stroke-width="5"></path>
    <path class="link" d="M398,599C398,634.975,1065,634.975,1065,670.95" transform="translate(4,0)" fill="none"
        stroke="#e80000" stroke-width="5"></path>
    <g class="node" transform="translate(353,416)">
        <circle r="139.78125" fill="steelblue" style=""></circle>
        <circle r="139.78125" fill="steelblue"></circle><text dy="-0.3em" x="-6" text-anchor="end"
            style="">aaaaRoot</text><text dy="-0.3em" x="-6" text-anchor="end">Root</text>
    </g>
    <g class="node" transform="translate(568,311)">
        <circle r="93.1875" fill="steelblue" style=""></circle>
        <circle r="93.1875" fill="steelblue"></circle><text dy="-0.3em" x="-6" text-anchor="end" style="">Object
            1sss</text><text dy="-0.3em" x="-6" text-anchor="end">Object 1</text>
    </g>
    <g class="node" transform="translate(398,599)">
        <circle r="93.1875" fill="steelblue" style=""></circle>
        <circle r="93.1875" fill="steelblue"></circle>
        <text dy="-0.3em" x="-6" text-anchor="end"
            style="">nnnnnnaaaaaaaaaaaaaaaaObject 2</text>
            <text dy="-0.3em" x="-6" text-anchor="end">Object 2</text>
    </g>
    <g class="node" transform="translate(1065,74.55)">
        <circle r="46.59375" fill="steelblue"></circle>
        <circle r="46.59375" fill="steelblue"></circle><text dy="-0.3em" x="6" text-anchor="start">userId: 2</text><text
            dy="-0.3em" x="6" text-anchor="start">userId: 2</text>
    </g>
    <g class="node" transform="translate(1065,149.1)">
        <circle r="46.59375" fill="steelblue"></circle>
        <circle r="46.59375" fill="steelblue"></circle><text dy="-0.3em" x="6" text-anchor="start">id: 32</text><text
            dy="-0.3em" x="6" text-anchor="start">id: 32</text>
    </g>
    <g class="node" transform="translate(1065,223.64999999999998)">
        <circle r="46.59375" fill="steelblue"></circle>
        <circle r="46.59375" fill="steelblue"></circle><text dy="-0.3em" x="6" text-anchor="start">title: earum
            doloribus ea doloremque quis</text><text dy="-0.3em" x="6" text-anchor="start">title: earum doloribus ea
            doloremque quis</text>
    </g>
    <g class="node" transform="translate(1065,298.2)">
        <circle r="46.59375" fill="steelblue"></circle>
        <circle r="46.59375" fill="steelblue"></circle><text dy="-0.3em" x="6" text-anchor="start">completed:
            false</text><text dy="-0.3em" x="6" text-anchor="start">completed: false</text>
    </g>
    <g class="node" transform="translate(1065,447.29999999999995)">
        <circle r="46.59375" fill="steelblue"></circle>
        <circle r="46.59375" fill="steelblue"></circle><text dy="-0.3em" x="6" text-anchor="start">userId: 8</text><text
            dy="-0.3em" x="6" text-anchor="start">userId: 8</text>
    </g>
    <g class="node" transform="translate(1065,521.85)">
        <circle r="46.59375" fill="steelblue"></circle>
        <circle r="46.59375" fill="steelblue"></circle><text dy="-0.3em" x="6" text-anchor="start">id: 141</text><text
            dy="-0.3em" x="6" text-anchor="start">id: 141</text>
    </g>
    <g class="node" transform="translate(1065,596.4)">
        <circle r="46.59375" fill="steelblue"></circle>
        <circle r="46.59375" fill="steelblue"></circle><text dy="-0.3em" x="6" text-anchor="start">title: explicabo
            consectetur debitis voluptates quas quae culpa rerum non</text><text dy="-0.3em" x="6"
            text-anchor="start">title: explicabo consectetur debitis voluptates quas quae culpa rerum non</text>
    </g>
    <g class="node" transform="translate(1065,670.9499999999999)">
        <circle r="46.59375" fill="steelblue"></circle>
        <circle r="46.59375" fill="steelblue"></circle><text dy="-0.3em" x="6" text-anchor="start">completed:
            true</text><text dy="-0.3em" x="6" text-anchor="start">completed: true</text>
    </g>
</svg>